<svg xmlns="http://www.w3.org/2000/svg" viewBox="0 0 200 200">
    <defs>
        <linearGradient id="bg-ashikaga" x1="0%" y1="0%" x2="0%" y2="100%">
            <stop offset="0%" style="stop-color:#d4af37;stop-opacity:1" />
            <stop offset="100%" style="stop-color:#b8941e;stop-opacity:1" />
        </linearGradient>
    </defs>
    <rect width="200" height="200" fill="url(#bg-ashikaga)"/>
    <ellipse cx="100" cy="60" rx="45" ry="30" fill="#2c1810"/>
    <rect x="65" y="55" width="70" height="40" fill="#2c1810"/>
    <ellipse cx="100" cy="115" rx="38" ry="48" fill="#f4c8a0" stroke="#8b6f47" stroke-width="2"/>
    <path d="M 75 98 Q 82 97 90 98" stroke="#2c1810" stroke-width="2" fill="none"/>
    <path d="M 110 98 Q 118 97 125 98" stroke="#2c1810" stroke-width="2" fill="none"/>
    <ellipse cx="82" cy="108" rx="8" ry="6" fill="white" stroke="#000" stroke-width="1"/>
    <ellipse cx="118" cy="108" rx="8" ry="6" fill="wh    <ellipse cx="118" cy="108" rx="8" ry="6" fill="wh    <ellipse cx="118" cy="10a0    <ellipse cx="118" cy="108" rx="8" ry="6" fill="wh    <ell    path d="M    <ellipse cx="118" cy="108" rx="8" ry="6" fill="wh    <ellipse cx="1none"/>
    <path d="M 90 138 Q 100 139 110 138" stroke="#8b4513" stroke-width="    <path d="M 90 138 Q 100 139 110 138" stroke="#8b4513" stroke-width="   f3    <path d="M 90 138 Q ke    <path />
</svg>
