<svg xmlns="http://www.w3.org/2000/svg" viewBox="0 0 200 200">
    <defs>
        <linearGradient id="bg-shimazu" x1="0%" y1="0%" x2="0%" y2="100%">
            <stop offset="0%" style="stop-color:#e67e22;stop-opacity:1" />
            <stop offset="100%" style="stop-color:#ca6f1e;stop-opacity:1" />
        </linearGradient>
    </defs>
    <rect width="200" height="200" fill="url(#bg-shimazu)"/>
    <ellipse cx="100" cy="60" rx="45" ry="30" fill="#2c1810"/>
    <rect x="65" y="55" width="70" height="40" fill="#2c1810"/>
    <ellipse cx="100" cy="115" rx="40" ry="50" fill="#f4c8a0" stroke="#8b6f47" stroke-width="2"/>
    <path d="M 75 95 Q 82 93 90 95" stroke="#2c1810" stroke-width="3" fill="none" stroke-linecap="round"/>
    <path d="M 110 95 Q 118 93 125 95" stroke="#2c1810" stroke-width="3" fill="none" stroke-linecap="round"/>
    <ellipse cx="82" cy="105" rx="9" ry="7" fill="white" stroke="#000" stroke-width="1"/>
    <ellipse cx="118" cy="105" rx="9" ry="7" fill="white" stroke="#000" stroke-width="1"/>
    <circle cx="82" cy="105" r="4" fill="#1a0f0a"/>
    <circle cx="118" cy="105" r="4" fill="#1a0f0a"/>
    <path d="M 100 115 L 98 125 L 102 125" stroke="#8b6f47" stroke-width="1.5" fill="none"/>
    <path d="M 88 135 Q 100 136 112 135" stroke="#8b4513" stroke-width="2" fill="none"/>
    <rect x="70" y="160" width="60" height="40" fill="#e67e22" stroke="#2c1810" stroke-width="2"/>
    <line x1="75" y1="165" x2="125" y2="165" stroke="#2c1810" stroke-width="1"/>
    <g transform="translate(100, 185)">
        <circle r="10" fill="none" stroke="#2c1810" stroke-width="2"/>
        <path d="M -7 0 L 7 0 M 0 -7 L 0 7" stroke="#2c1810" stroke-width="2"/>
    </g>
</svg>